<svg width="346" height="55" viewBox="0 0 346 55" fill="none" xmlns="http://www.w3.org/2000/svg">
<rect width="346" height="55" rx="27.5" fill="white" fill-opacity="0.12"/>
<path d="M26.0645 36V18.96H29.1845V27.096L27.7445 26.064H37.7765L36.3605 27.096V18.96H39.4805V36H36.3605V27.768L37.7765 28.776H27.7445L29.1845 27.768V36H26.0645ZM43.7522 39.6V37.224H45.3842C45.8002 37.224 46.1042 37.16 46.2962 37.032C46.5042 36.904 46.6642 36.688 46.7762 36.384L47.1362 35.496H46.2482L41.6642 23.184H44.8562L48.0722 32.616L51.1442 23.184H54.3362L49.3202 37.344C49.0322 38.144 48.6242 38.72 48.0962 39.072C47.5842 39.424 46.8642 39.6 45.9362 39.6H43.7522ZM60.408 36.288C59.32 36.288 58.376 36.016 57.576 35.472C56.792 34.928 56.184 34.152 55.752 33.144C55.32 32.136 55.104 30.952 55.104 29.592C55.104 28.232 55.32 27.048 55.752 26.04C56.184 25.032 56.8 24.256 57.6 23.712C58.4 23.168 59.336 22.896 60.408 22.896C61.304 22.896 62.088 23.08 62.76 23.448C63.448 23.816 63.968 24.336 64.32 25.008V18.96H67.392V36H64.464L64.392 34.104C64.04 34.792 63.512 35.328 62.808 35.712C62.104 36.096 61.304 36.288 60.408 36.288ZM61.344 33.792C61.984 33.792 62.52 33.632 62.952 33.312C63.4 32.992 63.736 32.52 63.96 31.896C64.2 31.256 64.32 30.488 64.32 29.592C64.32 28.68 64.2 27.912 63.96 27.288C63.736 26.664 63.4 26.192 62.952 25.872C62.52 25.552 61.984 25.392 61.344 25.392C60.416 25.392 59.672 25.768 59.112 26.52C58.568 27.256 58.296 28.28 58.296 29.592C58.296 30.872 58.568 31.896 59.112 32.664C59.672 33.416 60.416 33.792 61.344 33.792ZM70.9417 36V23.184H73.8217L73.9417 26.736L73.6777 26.688C73.8697 25.456 74.2297 24.568 74.7577 24.024C75.3017 23.464 76.0377 23.184 76.9657 23.184H78.1417V25.824H76.9417C76.2857 25.824 75.7417 25.92 75.3097 26.112C74.8777 26.304 74.5497 26.608 74.3257 27.024C74.1177 27.424 74.0137 27.952 74.0137 28.608V36H70.9417ZM83.6148 36.288C82.2708 36.288 81.1908 35.984 80.3748 35.376C79.5588 34.752 79.1508 33.888 79.1508 32.784C79.1508 31.68 79.4948 30.816 80.1828 30.192C80.8708 29.568 81.9188 29.12 83.3268 28.848L87.5748 28.008C87.5748 27.096 87.3668 26.416 86.9508 25.968C86.5348 25.504 85.9188 25.272 85.1028 25.272C84.3668 25.272 83.7828 25.448 83.3508 25.8C82.9348 26.136 82.6468 26.624 82.4868 27.264L79.3668 27.12C79.6228 25.76 80.2468 24.72 81.2388 24C82.2308 23.264 83.5188 22.896 85.1028 22.896C86.9268 22.896 88.3028 23.36 89.2308 24.288C90.1748 25.2 90.6468 26.512 90.6468 28.224V32.88C90.6468 33.216 90.7028 33.448 90.8148 33.576C90.9428 33.704 91.1268 33.768 91.3668 33.768H91.7748V36C91.6788 36.032 91.5188 36.056 91.2948 36.072C91.0868 36.088 90.8708 36.096 90.6468 36.096C90.1188 36.096 89.6468 36.016 89.2308 35.856C88.8148 35.68 88.4948 35.384 88.2708 34.968C88.0468 34.536 87.9348 33.952 87.9348 33.216L88.1988 33.408C88.0708 33.968 87.7908 34.472 87.3588 34.92C86.9428 35.352 86.4148 35.688 85.7748 35.928C85.1348 36.168 84.4148 36.288 83.6148 36.288ZM84.2388 34.056C84.9268 34.056 85.5188 33.92 86.0148 33.648C86.5108 33.376 86.8948 33 87.1668 32.52C87.4388 32.04 87.5748 31.472 87.5748 30.816V30.096L84.2628 30.768C83.5748 30.912 83.0788 31.128 82.7748 31.416C82.4868 31.688 82.3428 32.048 82.3428 32.496C82.3428 32.992 82.5028 33.376 82.8228 33.648C83.1588 33.92 83.6308 34.056 84.2388 34.056ZM99.7286 36V18.96H102.849V35.04L101.145 33.288H110.937V36H99.7286ZM117.271 36.288C115.927 36.288 114.847 35.984 114.031 35.376C113.215 34.752 112.807 33.888 112.807 32.784C112.807 31.68 113.151 30.816 113.839 30.192C114.527 29.568 115.575 29.12 116.983 28.848L121.231 28.008C121.231 27.096 121.023 26.416 120.607 25.968C120.191 25.504 119.575 25.272 118.759 25.272C118.023 25.272 117.439 25.448 117.007 25.8C116.591 26.136 116.303 26.624 116.143 27.264L113.023 27.12C113.279 25.76 113.903 24.72 114.895 24C115.887 23.264 117.175 22.896 118.759 22.896C120.583 22.896 121.959 23.36 122.887 24.288C123.831 25.2 124.303 26.512 124.303 28.224V32.88C124.303 33.216 124.359 33.448 124.471 33.576C124.599 33.704 124.783 33.768 125.023 33.768H125.431V36C125.335 36.032 125.175 36.056 124.951 36.072C124.743 36.088 124.527 36.096 124.303 36.096C123.775 36.096 123.303 36.016 122.887 35.856C122.471 35.68 122.151 35.384 121.927 34.968C121.703 34.536 121.591 33.952 121.591 33.216L121.855 33.408C121.727 33.968 121.447 34.472 121.015 34.92C120.599 35.352 120.071 35.688 119.431 35.928C118.791 36.168 118.071 36.288 117.271 36.288ZM117.895 34.056C118.583 34.056 119.175 33.92 119.671 33.648C120.167 33.376 120.551 33 120.823 32.52C121.095 32.04 121.231 31.472 121.231 30.816V30.096L117.919 30.768C117.231 30.912 116.735 31.128 116.431 31.416C116.143 31.688 115.999 32.048 115.999 32.496C115.999 32.992 116.159 33.376 116.479 33.648C116.815 33.92 117.287 34.056 117.895 34.056ZM134.173 36.288C133.277 36.288 132.493 36.096 131.821 35.712C131.165 35.328 130.653 34.792 130.285 34.104L130.213 36H127.285V18.96H130.357V25.008C130.709 24.416 131.213 23.92 131.869 23.52C132.525 23.104 133.293 22.896 134.173 22.896C135.277 22.896 136.229 23.176 137.029 23.736C137.845 24.28 138.469 25.056 138.901 26.064C139.349 27.056 139.573 28.232 139.573 29.592C139.573 30.952 139.349 32.136 138.901 33.144C138.469 34.136 137.845 34.912 137.029 35.472C136.229 36.016 135.277 36.288 134.173 36.288ZM133.477 33.792C134.357 33.792 135.061 33.424 135.589 32.688C136.117 31.936 136.381 30.904 136.381 29.592C136.381 28.264 136.117 27.232 135.589 26.496C135.077 25.76 134.381 25.392 133.501 25.392C132.845 25.392 132.277 25.56 131.797 25.896C131.333 26.216 130.973 26.688 130.717 27.312C130.477 27.936 130.357 28.696 130.357 29.592C130.357 30.456 130.477 31.208 130.717 31.848C130.973 32.472 131.333 32.952 131.797 33.288C132.261 33.624 132.821 33.792 133.477 33.792ZM148.104 36V18.96H151.224V27.096L149.784 26.064H159.816L158.4 27.096V18.96H161.52V36H158.4V27.768L159.816 28.776H149.784L151.224 27.768V36H148.104ZM168.599 36.288C167.255 36.288 166.175 35.984 165.359 35.376C164.543 34.752 164.135 33.888 164.135 32.784C164.135 31.68 164.479 30.816 165.167 30.192C165.855 29.568 166.903 29.12 168.311 28.848L172.559 28.008C172.559 27.096 172.351 26.416 171.935 25.968C171.519 25.504 170.903 25.272 170.087 25.272C169.351 25.272 168.767 25.448 168.335 25.8C167.919 26.136 167.631 26.624 167.471 27.264L164.351 27.12C164.607 25.76 165.231 24.72 166.223 24C167.215 23.264 168.503 22.896 170.087 22.896C171.911 22.896 173.287 23.36 174.215 24.288C175.159 25.2 175.631 26.512 175.631 28.224V32.88C175.631 33.216 175.687 33.448 175.799 33.576C175.927 33.704 176.111 33.768 176.351 33.768H176.759V36C176.663 36.032 176.503 36.056 176.279 36.072C176.071 36.088 175.855 36.096 175.631 36.096C175.103 36.096 174.631 36.016 174.215 35.856C173.799 35.68 173.479 35.384 173.255 34.968C173.031 34.536 172.919 33.952 172.919 33.216L173.183 33.408C173.055 33.968 172.775 34.472 172.343 34.92C171.927 35.352 171.399 35.688 170.759 35.928C170.119 36.168 169.399 36.288 168.599 36.288ZM169.223 34.056C169.911 34.056 170.503 33.92 170.999 33.648C171.495 33.376 171.879 33 172.151 32.52C172.423 32.04 172.559 31.472 172.559 30.816V30.096L169.247 30.768C168.559 30.912 168.063 31.128 167.759 31.416C167.471 31.688 167.327 32.048 167.327 32.496C167.327 32.992 167.487 33.376 167.807 33.648C168.143 33.92 168.615 34.056 169.223 34.056ZM184.182 36.288C182.902 36.288 181.79 36.016 180.846 35.472C179.902 34.912 179.166 34.128 178.638 33.12C178.126 32.112 177.87 30.936 177.87 29.592C177.87 28.248 178.126 27.08 178.638 26.088C179.166 25.08 179.902 24.296 180.846 23.736C181.79 23.176 182.902 22.896 184.182 22.896C185.27 22.896 186.238 23.088 187.086 23.472C187.934 23.856 188.622 24.408 189.15 25.128C189.694 25.832 190.03 26.696 190.158 27.72L186.99 27.888C186.862 27.072 186.542 26.456 186.03 26.04C185.534 25.608 184.918 25.392 184.182 25.392C183.19 25.392 182.422 25.768 181.878 26.52C181.334 27.256 181.062 28.28 181.062 29.592C181.062 30.92 181.334 31.952 181.878 32.688C182.422 33.424 183.19 33.792 184.182 33.792C184.934 33.792 185.558 33.576 186.054 33.144C186.566 32.712 186.878 32.04 186.99 31.128L190.158 31.272C190.03 32.296 189.702 33.184 189.174 33.936C188.646 34.688 187.958 35.272 187.11 35.688C186.262 36.088 185.286 36.288 184.182 36.288ZM192.301 36V18.96H195.373V28.968L200.629 23.184H204.421L199.405 28.512L204.589 36H201.133L197.389 30.336L195.373 32.472V36H192.301ZM209.849 36.288C208.505 36.288 207.425 35.984 206.609 35.376C205.793 34.752 205.385 33.888 205.385 32.784C205.385 31.68 205.729 30.816 206.417 30.192C207.105 29.568 208.153 29.12 209.561 28.848L213.809 28.008C213.809 27.096 213.601 26.416 213.185 25.968C212.769 25.504 212.153 25.272 211.337 25.272C210.601 25.272 210.017 25.448 209.585 25.8C209.169 26.136 208.881 26.624 208.721 27.264L205.601 27.12C205.857 25.76 206.481 24.72 207.473 24C208.465 23.264 209.753 22.896 211.337 22.896C213.161 22.896 214.537 23.36 215.465 24.288C216.409 25.2 216.881 26.512 216.881 28.224V32.88C216.881 33.216 216.937 33.448 217.049 33.576C217.177 33.704 217.361 33.768 217.601 33.768H218.009V36C217.913 36.032 217.753 36.056 217.529 36.072C217.321 36.088 217.105 36.096 216.881 36.096C216.353 36.096 215.881 36.016 215.465 35.856C215.049 35.68 214.729 35.384 214.505 34.968C214.281 34.536 214.169 33.952 214.169 33.216L214.433 33.408C214.305 33.968 214.025 34.472 213.593 34.92C213.177 35.352 212.649 35.688 212.009 35.928C211.369 36.168 210.649 36.288 209.849 36.288ZM210.473 34.056C211.161 34.056 211.753 33.92 212.249 33.648C212.745 33.376 213.129 33 213.401 32.52C213.673 32.04 213.809 31.472 213.809 30.816V30.096L210.497 30.768C209.809 30.912 209.313 31.128 209.009 31.416C208.721 31.688 208.577 32.048 208.577 32.496C208.577 32.992 208.737 33.376 209.057 33.648C209.393 33.92 209.865 34.056 210.473 34.056ZM224.484 36C223.204 36 222.26 35.704 221.652 35.112C221.06 34.52 220.764 33.592 220.764 32.328V20.184H223.836V32.04C223.836 32.632 223.964 33.048 224.22 33.288C224.476 33.512 224.876 33.624 225.42 33.624H227.22V36H224.484ZM218.748 25.56V23.184H227.22V25.56H218.748ZM229.473 36V18.96H232.545V26.112H232.161C232.289 25.376 232.545 24.776 232.929 24.312C233.313 23.832 233.785 23.48 234.345 23.256C234.905 23.016 235.521 22.896 236.193 22.896C237.137 22.896 237.929 23.104 238.569 23.52C239.225 23.92 239.713 24.488 240.033 25.224C240.369 25.96 240.537 26.808 240.537 27.768V36H237.465V28.512C237.465 27.472 237.289 26.696 236.937 26.184C236.585 25.656 236.033 25.392 235.281 25.392C234.449 25.392 233.785 25.664 233.289 26.208C232.793 26.752 232.545 27.544 232.545 28.584V36H229.473ZM249.15 36.288C247.886 36.288 246.774 36.016 245.814 35.472C244.87 34.912 244.134 34.128 243.606 33.12C243.094 32.112 242.838 30.936 242.838 29.592C242.838 28.232 243.094 27.056 243.606 26.064C244.134 25.056 244.87 24.28 245.814 23.736C246.774 23.176 247.886 22.896 249.15 22.896C250.414 22.896 251.518 23.176 252.462 23.736C253.406 24.28 254.134 25.056 254.646 26.064C255.174 27.056 255.438 28.232 255.438 29.592C255.438 30.936 255.174 32.112 254.646 33.12C254.134 34.128 253.406 34.912 252.462 35.472C251.518 36.016 250.414 36.288 249.15 36.288ZM249.15 33.792C250.142 33.792 250.902 33.424 251.43 32.688C251.974 31.952 252.246 30.92 252.246 29.592C252.246 28.28 251.974 27.256 251.43 26.52C250.902 25.768 250.142 25.392 249.15 25.392C248.158 25.392 247.39 25.768 246.846 26.52C246.302 27.256 246.03 28.28 246.03 29.592C246.03 30.92 246.302 31.952 246.846 32.688C247.39 33.424 248.158 33.792 249.15 33.792ZM257.809 36V23.184H260.593L260.713 26.784L260.353 26.64C260.481 25.744 260.745 25.024 261.145 24.48C261.545 23.936 262.033 23.536 262.609 23.28C263.185 23.024 263.817 22.896 264.505 22.896C265.449 22.896 266.241 23.104 266.881 23.52C267.537 23.936 268.033 24.512 268.369 25.248C268.705 25.968 268.873 26.808 268.873 27.768V36H265.801V28.752C265.801 28.032 265.729 27.424 265.585 26.928C265.441 26.432 265.201 26.056 264.865 25.8C264.545 25.528 264.113 25.392 263.569 25.392C262.753 25.392 262.097 25.68 261.601 26.256C261.121 26.832 260.881 27.664 260.881 28.752V36H257.809ZM280.775 36V24.312H277.127V21.936H278.591C279.279 21.936 279.831 21.848 280.247 21.672C280.663 21.496 280.959 21.192 281.135 20.76C281.327 20.312 281.423 19.712 281.423 18.96H283.895V36H280.775ZM287.393 36V32.64H290.897V36H287.393ZM299.611 36.384C298.171 36.384 296.915 36.024 295.843 35.304C294.787 34.584 293.971 33.56 293.395 32.232C292.819 30.904 292.531 29.328 292.531 27.504C292.531 25.68 292.819 24.104 293.395 22.776C293.971 21.432 294.787 20.4 295.843 19.68C296.915 18.944 298.171 18.576 299.611 18.576C301.083 18.576 302.347 18.944 303.403 19.68C304.459 20.4 305.275 21.424 305.851 22.752C306.427 24.08 306.715 25.664 306.715 27.504C306.715 29.328 306.427 30.904 305.851 32.232C305.275 33.56 304.459 34.584 303.403 35.304C302.347 36.024 301.083 36.384 299.611 36.384ZM299.611 33.672C300.859 33.672 301.819 33.152 302.491 32.112C303.163 31.056 303.499 29.52 303.499 27.504C303.499 26.16 303.347 25.024 303.043 24.096C302.739 23.168 302.299 22.472 301.723 22.008C301.163 21.528 300.459 21.288 299.611 21.288C298.795 21.288 298.099 21.528 297.523 22.008C296.947 22.472 296.507 23.168 296.203 24.096C295.899 25.024 295.747 26.16 295.747 27.504C295.747 29.52 296.083 31.056 296.755 32.112C297.427 33.152 298.379 33.672 299.611 33.672Z" fill="white"/>
</svg>
